<svg width="512" height="512" viewBox="0 0 512 512" fill="none" xmlns="http://www.w3.org/2000/svg">
<g clip-path="url(#clip0_1857_1629)">
<path d="M92.8472 1.07556C95.8138 1.05428 98.7804 1.03299 101.837 1.01107C105.064 1.00307 108.291 0.995072 111.616 0.986831C115.037 0.967287 118.459 0.947743 121.984 0.927604C133.308 0.868975 144.632 0.834234 155.957 0.804568C159.832 0.792445 163.706 0.780319 167.698 0.76783C188.213 0.705804 208.728 0.663267 229.244 0.635377C250.387 0.602505 271.529 0.500217 292.672 0.382043C308.969 0.304108 325.265 0.279363 341.562 0.268696C349.354 0.254247 357.143 0.219784 364.936 0.164494C375.869 0.0917291 386.803 0.0948529 397.736 0.115457C400.921 0.0773561 404.107 0.0392556 407.389 0C434.945 0.188136 457.227 6.87572 480.19 19.9167C500.309 38.0212 510.613 57.5462 510.748 82.4984C510.786 87.2195 510.786 87.2195 510.824 92.0361C510.831 95.4738 510.841 98.9118 510.852 102.454C510.872 106.088 510.897 109.721 510.921 113.464C510.99 125.506 511.028 137.547 511.063 149.589C511.077 153.746 511.09 157.903 511.108 162.06C511.173 181.605 511.222 201.149 511.25 220.694C511.284 243.191 511.374 265.687 511.516 288.184C511.62 305.611 511.671 323.037 511.682 340.464C511.689 350.853 511.72 361.242 511.806 371.631C511.903 383.249 511.889 394.864 511.865 406.481C511.931 411.576 511.931 411.576 512 416.772C511.806 442.283 505.878 464.019 490.351 485.951C472.826 500.183 453.685 510.427 429.193 510.575C426.06 510.599 422.923 510.626 419.689 510.653C416.257 510.665 412.823 510.676 409.285 510.691C403.851 510.727 403.851 510.727 398.306 510.763C386.287 510.837 374.271 510.888 362.255 510.929C358.146 510.947 354.041 510.962 349.811 510.977C328.062 511.057 306.313 511.114 284.565 511.158C262.137 511.209 239.712 511.34 217.285 511.491C200.012 511.592 182.74 511.625 165.467 511.643C157.203 511.664 148.939 511.708 140.675 511.78C129.077 511.875 117.484 511.875 105.885 511.851C102.5 511.902 99.1159 511.949 95.6288 512C67.9568 511.786 45.0555 504.856 24.4965 488.566C22.713 486.415 20.9296 484.262 19.0921 482.046C16.3099 478.831 16.3099 478.831 13.4716 475.553C-0.0261666 455.471 0.773163 436.123 0.793341 413.536C0.770105 409.803 0.746872 406.074 0.722937 402.231C0.668582 392.029 0.645659 381.827 0.641238 371.625C0.63631 365.24 0.621441 358.857 0.603134 352.471C0.539195 330.167 0.510921 307.863 0.516368 285.557C0.520526 264.816 0.44758 244.077 0.338299 223.336C0.247629 205.488 0.210705 187.639 0.215118 169.79C0.21688 159.148 0.19757 148.507 0.124026 137.865C0.0441477 125.984 0.0761503 114.105 0.117798 102.223C0.0789277 98.7318 0.040051 95.2406 0 91.6435C0.250538 63.4567 8.12191 41.8786 30.4683 20.8578C48.076 7.54875 69.6277 1.19042 92.8472 1.07556Z" fill="#FFAA00"/>
<path d="M394.588 76.1615C397.546 77.0471 400.504 77.9328 403.551 78.8453C406.269 87.8727 406.269 87.8727 406.463 99.6653C400.934 108.344 393.763 114.885 386.263 121.787C384.306 123.679 382.349 125.571 380.332 127.52C375.503 132.173 370.628 136.762 365.7 141.305C367.856 145.607 367.856 145.607 370.056 149.996C371.941 153.791 373.825 157.586 375.709 161.382C376.657 163.268 377.604 165.154 378.581 167.098C392.787 195.824 394.003 233.571 385.717 264.738C372.149 302.546 348.335 331.277 313.292 349.506C302.624 353.322 292.334 355.932 281.264 358.428C281.264 372.17 281.264 385.911 281.264 400.068C265.891 400.068 250.518 400.068 234.679 400.068C234.679 386.327 234.679 372.586 234.679 358.428C229.994 357.386 225.311 356.343 220.485 355.268C186.273 345.765 160.469 319.82 141.508 290.02C124.78 257.142 120.629 217.556 130.225 181.458C145.837 138.288 172.704 114.601 212.239 95.4014C242.147 81.8336 277.33 85.3789 307.468 96.691C315.492 101.074 323.05 105.749 330.59 110.947C336.682 115.289 336.682 115.289 345.319 114.537C349.686 110.922 349.686 110.922 353.735 105.974C355.323 104.216 356.91 102.458 358.546 100.647C361.845 96.9109 365.114 93.1466 368.35 89.3541C380.726 75.8089 380.726 75.8089 394.588 76.1615Z" fill="#FAFBFB"/>
<path d="M132.772 331.659C143.35 336.703 150.083 342.777 158.248 351.364C160.575 353.795 162.903 356.225 165.3 358.73C167.057 360.593 168.813 362.456 170.623 364.376C160.225 388.467 137.811 407.073 119.852 425.535C118.338 427.095 116.824 428.656 115.264 430.264C101.498 444.266 101.498 444.266 89.6441 445.612C78.2357 444.469 73.9203 440.838 65.8055 432.785C61.7101 424.418 62.1729 418.266 62.8939 408.991C78.482 379.343 109.458 354.912 132.772 331.659Z" fill="#F9FAFA"/>
<path d="M257.971 428.696C261.134 428.645 261.134 428.645 264.362 428.592C279.621 428.678 279.621 428.678 287.018 433.785C291.723 441.599 291.091 447.649 289.998 456.58C287.018 461.53 287.018 461.53 281.263 465.503C273.224 466.391 265.991 466.75 257.971 466.619C254.807 466.67 254.807 466.67 251.579 466.723C236.32 466.637 236.32 466.637 228.923 461.53C224.219 453.716 224.85 447.666 225.943 438.735C233.296 426.521 245.407 428.491 257.971 428.696Z" fill="#FBFBFC"/>
<path d="M256.332 255.814C263.793 257.302 263.793 257.302 270.708 263.808C275.439 272.173 275.439 272.173 275.439 279.981C271.866 288.649 269.116 291.761 260.881 295.967C251.566 295.735 247.688 294.294 240.864 287.788C237.588 281.096 237.588 281.096 237.952 273.474C241.789 262.556 245.022 258.184 256.332 255.814Z" fill="#F4F4F5"/>
<path d="M336.854 124.628C358.249 141.827 376.666 170.776 381.03 198.88C384.008 243.258 376.91 278.616 347.898 313.113C326.233 337.546 295.587 347.712 264.411 350.864C233.654 352.22 204.123 340.106 180.686 320.074C156.191 296.445 142.572 268.542 140.058 234.076C139.084 193.964 149.183 162.724 175.336 132.66C220.245 88.4552 287.911 87.7568 336.854 124.628Z" fill="#FFAA00"/>
<path d="M305.051 122.884C324.011 137.284 334.028 154.87 337.875 178.541C338.983 198.231 331.425 218.588 318.782 233.35C305.918 246.083 290.457 252.571 273.946 259.199C267.965 261.217 267.965 261.217 266.153 265.949C265.674 271.592 265.379 277.232 265.092 282.888C263.999 289.203 262.515 292.145 258.044 296.66C250.949 297.684 250.949 297.684 243.854 296.66C239.325 292.14 237.894 289.248 236.893 282.872C236.873 267.14 238.645 256.64 248.439 244.299C256.478 236.18 266.087 232.48 276.416 228.199C290.928 222.129 299.714 216.812 306.777 202.222C312.402 187.996 311.455 175.132 305.558 161.146C299.443 149.895 289.649 143.486 278.317 138.24C264.19 135.268 252.523 136.266 239.799 143.103C229.205 150.164 223.243 157.209 219.527 169.719C219.175 173.255 218.882 176.796 218.64 180.341C218.111 187.085 217.72 189.839 214.079 195.696C209.391 198.384 209.391 198.384 203.056 198.256C197.227 196.336 197.227 196.336 193.173 190.194C190.704 171.144 194.022 155.166 205.241 139.688C231.207 108.65 270.577 100.216 305.051 122.884Z" fill="#F9F9FA"/>
<path d="M259.505 312.811C264.659 317.508 264.659 317.508 268.095 323.547C268.22 330.1 267.119 333.154 263.585 338.533C257.867 342.608 254.263 342.45 247.479 341.441C242.319 337.764 240.894 335.22 238.996 329.027C238.868 322.476 240.24 319.735 244.043 314.6C249.504 311.756 253.484 312.067 259.505 312.811Z" fill="#F5F6F6"/>
</g>
<defs>
<clipPath id="clip0_1857_1629">
<rect width="512" height="512" fill="white"/>
</clipPath>
</defs>
</svg>
