<svg width="32" height="32" viewBox="0 0 32 32" fill="none" xmlns="http://www.w3.org/2000/svg">
<g clip-path="url(#clip0_1866_1352)">
<path d="M5.80295 0.0672223C5.98836 0.0658922 6.17377 0.064562 6.36481 0.0631916C6.5665 0.0626917 6.76821 0.062192 6.97601 0.0616769C7.18983 0.0604554 7.40367 0.059234 7.62398 0.0579753C8.33175 0.054311 9.03953 0.0521396 9.74732 0.0502855C9.98948 0.0495278 10.2316 0.0487699 10.4811 0.0479894C11.7633 0.0441128 13.0455 0.0414542 14.3277 0.039711C15.6492 0.0376565 16.9706 0.0312636 18.292 0.0238777C19.3106 0.0190067 20.3291 0.0174602 21.3476 0.0167935C21.8346 0.0158905 22.3215 0.0137365 22.8085 0.0102809C23.4918 0.00573307 24.1752 0.00592831 24.8585 0.00721606C25.0576 0.00483475 25.2567 0.00245347 25.4618 0C27.1841 0.0117585 28.5767 0.429732 30.0119 1.24479C31.2693 2.37633 31.9133 3.59664 31.9217 5.15615C31.9241 5.45122 31.9241 5.45122 31.9265 5.75226C31.9269 5.96711 31.9276 6.18199 31.9282 6.40337C31.9295 6.63047 31.931 6.85756 31.9326 7.09152C31.9369 7.84411 31.9393 8.5967 31.9414 9.34929C31.9423 9.60913 31.9431 9.86895 31.9442 10.1288C31.9483 11.3503 31.9514 12.5718 31.9531 13.7934C31.9553 15.1994 31.9609 16.6054 31.9697 18.0115C31.9762 19.1007 31.9795 20.1898 31.9801 21.279C31.9805 21.9283 31.9825 22.5776 31.9879 23.227C31.9939 23.9531 31.9931 24.679 31.9916 25.4051C31.9957 25.7235 31.9957 25.7235 32 26.0483C31.9879 27.6427 31.6174 29.0012 30.647 30.372C29.5516 31.2614 28.3553 31.9017 26.8246 31.911C26.6287 31.9124 26.4327 31.9141 26.2305 31.9158C26.0161 31.9165 25.8014 31.9173 25.5803 31.9182C25.2407 31.9204 25.2407 31.9204 24.8941 31.9227C24.1429 31.9273 23.392 31.9305 22.641 31.9331C22.3842 31.9342 22.1276 31.9351 21.8632 31.9361C20.5039 31.9411 19.1446 31.9446 17.7853 31.9474C16.3836 31.9506 14.982 31.9587 13.5803 31.9682C12.5008 31.9745 11.4213 31.9766 10.3417 31.9777C9.82519 31.979 9.30869 31.9818 8.7922 31.9862C8.06731 31.9922 7.34274 31.9922 6.61782 31.9907C6.40627 31.9939 6.19474 31.9968 5.9768 32C4.2473 31.9866 2.81597 31.5535 1.53103 30.5353C1.41956 30.4009 1.3081 30.2664 1.19326 30.1279C1.01937 29.9269 1.01937 29.9269 0.841975 29.7221C-0.00163541 28.4669 0.0483227 27.2577 0.0495838 25.846C0.0481316 25.6127 0.0466795 25.3796 0.0451836 25.1394C0.0417864 24.5018 0.0403537 23.8642 0.0400774 23.2266C0.0397694 22.8275 0.0388401 22.4286 0.0376958 22.0294C0.0336997 20.6354 0.0319326 19.2414 0.032273 17.8473C0.0325329 16.551 0.0279737 15.2548 0.0211437 13.9585C0.0154768 12.843 0.013169 11.7274 0.0134449 10.6119C0.013555 9.94675 0.0123481 9.2817 0.0077516 8.61659C0.00275923 7.874 0.0047594 7.13154 0.00736237 6.38894C0.00493298 6.17074 0.00250319 5.95254 0 5.72772C0.0156586 3.96605 0.507619 2.61741 1.90427 1.30361C3.00475 0.471797 4.35173 0.0744011 5.80295 0.0672223Z" fill="#FFAA00"/>
<path d="M24.6621 4.76058C24.847 4.81594 25.0318 4.87129 25.2223 4.92832C25.3922 5.49253 25.3922 5.49253 25.4043 6.22957C25.0587 6.77197 24.6106 7.1808 24.1418 7.61215C24.0195 7.7304 23.8972 7.84866 23.7711 7.9705C23.4693 8.26133 23.1646 8.54812 22.8566 8.83207C22.9914 9.10093 22.9914 9.10093 23.1289 9.37524C23.2467 9.61242 23.3644 9.84963 23.4822 10.0869C23.5414 10.2047 23.6006 10.3226 23.6617 10.4441C24.5496 12.2395 24.6256 14.5987 24.1077 16.5466C23.2597 18.9096 21.7713 20.7053 19.5811 21.8446C18.9144 22.0831 18.2712 22.2462 17.5794 22.4023C17.5794 23.2611 17.5794 24.1199 17.5794 25.0048C16.6185 25.0048 15.6577 25.0048 14.6678 25.0048C14.6678 24.1459 14.6678 23.2871 14.6678 22.4023C14.375 22.3371 14.0823 22.2719 13.7807 22.2048C11.6424 21.6108 10.0297 19.9892 8.84459 18.1267C7.79913 16.0719 7.53968 13.5977 8.13944 11.3416C9.11518 8.64347 10.7944 7.16307 13.2653 5.96308C15.1346 5.11509 17.3335 5.33667 19.2171 6.04368C19.7186 6.31761 20.191 6.60977 20.6623 6.93466C21.043 7.20605 21.043 7.20605 21.5828 7.15904C21.8557 6.9331 21.8557 6.9331 22.1088 6.62387C22.2081 6.514 22.3073 6.40413 22.4095 6.29093C22.6157 6.05742 22.82 5.82215 23.0222 5.58512C23.7957 4.73854 23.7957 4.73854 24.6621 4.76058Z" fill="#FAFBFB"/>
<path d="M8.29764 20.7285C8.95877 21.0438 9.37957 21.4234 9.88992 21.9601C10.0354 22.112 10.1808 22.2639 10.3306 22.4204C10.4404 22.5369 10.5502 22.6533 10.6633 22.7733C10.0134 24.279 8.61258 25.4419 7.49013 26.5958C7.39552 26.6933 7.3009 26.7908 7.20339 26.8913C6.34302 27.7664 6.34302 27.7664 5.60215 27.8505C4.88912 27.7791 4.61941 27.5522 4.11223 27.0489C3.85627 26.5259 3.8852 26.1414 3.93026 25.5617C4.90452 23.7088 6.84053 22.1818 8.29764 20.7285Z" fill="#F9FAFA"/>
<path d="M16.1227 26.7932C16.3204 26.79 16.3204 26.79 16.5222 26.7867C17.4758 26.7921 17.4758 26.7921 17.9382 27.1113C18.2322 27.5996 18.1927 27.9778 18.1244 28.536C17.9382 28.8453 17.9382 28.8453 17.5785 29.0937C17.076 29.1491 16.6239 29.1716 16.1227 29.1634C15.9249 29.1666 15.9249 29.1666 15.7232 29.1699C14.7695 29.1645 14.7695 29.1645 14.3072 28.8453C14.0132 28.3569 14.0527 27.9788 14.121 27.4206C14.5805 26.6573 15.3374 26.7804 16.1227 26.7932Z" fill="#FBFBFC"/>
<path d="M16.02 15.9883C16.4863 16.0812 16.4863 16.0812 16.9185 16.4879C17.2142 17.0107 17.2142 17.0107 17.2142 17.4987C16.9909 18.0405 16.819 18.2349 16.3043 18.4978C15.7221 18.4833 15.4797 18.3933 15.0533 17.9866C14.8485 17.5684 14.8485 17.5684 14.8713 17.092C15.1111 16.4096 15.3131 16.1364 16.02 15.9883Z" fill="#F4F4F5"/>
<path d="M21.0538 7.78952C22.3909 8.86442 23.542 10.6737 23.8148 12.4302C24.0009 15.2039 23.5572 17.4137 21.744 19.5698C20.3899 21.0969 18.4746 21.7323 16.526 21.9292C14.6038 22.014 12.758 21.2569 11.2932 20.0049C9.76231 18.5281 8.91113 16.7841 8.75399 14.63C8.69309 12.123 9.32431 10.1705 10.9589 8.29152C13.7657 5.52869 17.9948 5.48504 21.0538 7.78952Z" fill="#FFAA00"/>
<path d="M19.0659 7.68021C20.251 8.58019 20.877 9.67929 21.1174 11.1587C21.1867 12.3894 20.7143 13.6617 19.9241 14.5843C19.1201 15.3801 18.1538 15.7856 17.1218 16.1999C16.7481 16.326 16.7481 16.326 16.6348 16.6217C16.6049 16.9744 16.5864 17.3269 16.5685 17.6804C16.5002 18.0751 16.4074 18.259 16.128 18.5412C15.6846 18.6052 15.6846 18.6052 15.2411 18.5412C14.9581 18.2587 14.8686 18.0779 14.8061 17.6794C14.8048 16.6962 14.9155 16.04 15.5277 15.2686C16.0301 14.7612 16.6307 14.5299 17.2763 14.2624C18.1832 13.883 18.7324 13.5507 19.1738 12.6388C19.5254 11.7497 19.4662 10.9457 19.0976 10.0716C18.7154 9.36835 18.1033 8.96781 17.395 8.63995C16.5121 8.45417 15.783 8.51657 14.9877 8.94387C14.3256 9.38522 13.9529 9.82548 13.7207 10.6074C13.6987 10.8283 13.6804 11.0497 13.6652 11.2712C13.6322 11.6927 13.6078 11.8649 13.3802 12.231C13.0872 12.3989 13.0872 12.3989 12.6912 12.3909C12.327 12.2709 12.327 12.2709 12.0736 11.887C11.9192 10.6965 12.1266 9.69781 12.8278 8.73042C14.4507 6.79054 16.9113 6.26346 19.0659 7.68021Z" fill="#F9F9FA"/>
<path d="M16.2198 19.5505C16.5419 19.8441 16.5419 19.8441 16.7567 20.2215C16.7645 20.6311 16.6956 20.8219 16.4748 21.1581C16.1174 21.4128 15.8922 21.4029 15.4682 21.3399C15.1457 21.11 15.0566 20.9511 14.938 20.564C14.93 20.1546 15.0157 19.9833 15.2534 19.6623C15.5947 19.4846 15.8435 19.504 16.2198 19.5505Z" fill="#F5F6F6"/>
</g>
<defs>
<clipPath id="clip0_1866_1352">
<rect width="32" height="32" fill="white"/>
</clipPath>
</defs>
</svg>
